# xmcd CD database file
#
# Track frame offsets:
#	150
#	13745
#	26262
#	42037
#	55730
#	69761
#	82765
#	96386
#	110039
#	122856
#	136336
#	149845
#	163584
#	177081
#	190861
#	205040
#	217094
#	230141
#	250163
#	271119
#
# Disc length: 3788 seconds
#
# Revision: 0
# Processed by: cddbd v1.5.2PL0 Copyright (c) Steve Scherf et al.
# Submitted via: CDex 1.77
#
DISCID=1a0eca14
DTITLE=Louis Armstrong - The Essential Collection [CD3)
DYEAR=2099
DGENRE=Jazz
TTITLE0=Louis Armstrong - I Come From A Musical Family
TTITLE1=Louis Armstrong - I Aint't Got Nobody
TTITLE2=Louis Armstrong - The Peanut Vendor
TTITLE3=Louis Armstrong And His Orchestra - St. Louis Blues
TTITLE4=Louis Armstrong - Lazy River
TTITLE5=Louis Armstrong And His Orchestra - Sweethearts On Parade
TTITLE6=Louis Armstrong And His Orchestra And His Hot Five - Jazz Lips
TTITLE7=Louis Armstrong And His Orchestra - Jack-Armstrong Blues
TTITLE8=Louis Armstrong And His Orchestra - Muggles
TTITLE9=Louis Armstrong And His Orchestra And His Hot Five - Big Butter And Egg Man
TTITLE10=Louis Armstrong And His Orchestra - Down In Honky Tonk Town
TTITLE11=Louis Armstrong And His Orchestra And His Hot Five - I'm Not Rough
TTITLE12=Louis Armstrong And His Orchestra And His Hot Seven - Weary Blues
TTITLE13=Louis Armstrong And His Orchestra And His Hot Five - Hotter Than That
TTITLE14=Louis Armstrong And His Orchestra And His Hot Five - Skip The Gutter
TTITLE15=Louis Armstrong And Earl Hines Duet - Weather Bird
TTITLE16=Louis Armstrong - Swing That Music
TTITLE17=Louis Armstrong And His Orchestra With Edmund Hall and His Sextet - Black And Blue (Live)
TTITLE18=Louis Armstrong And His Orchestra - Save It, Pretty Mama (Live)
TTITLE19=Louis Armstrong - Ev'ntide
EXTD=YEAR: 2099
EXTT0=
EXTT1=
EXTT2=
EXTT3=
EXTT4=
EXTT5=
EXTT6=
EXTT7=
EXTT8=
EXTT9=
EXTT10=
EXTT11=
EXTT12=
EXTT13=
EXTT14=
EXTT15=
EXTT16=
EXTT17=
EXTT18=
EXTT19=
PLAYORDER=
